# xmcd CD database file
#
# Track frame offsets:
#	150
#	21460
#	46438
#	63310
#	92662
#	118039
#	137267
#	158107
#	179181
#	201807
#	229475
#	251229
#	269133
#	283780
#
# Disc length: 4106 seconds
#
# Revision: 0
# Processed by: cddbd v1.4PL0 Copyright (c) Steve Scherf et al.
# Submitted via: Feurio! 1.65 - http://www.feurio.com
#
DISCID=dc10080e
DTITLE=George Michael - Ladies and Gentlemen - The Best Of George Michael
DYEAR=1900
DGENRE=Jazz+Funk
TTITLE0=Outside
TTITLE1=Fastlove
TTITLE2=Too Funky
TTITLE3=Freedom '90
TTITLE4=Star People 97
TTITLE5=Killer/Papa Was A Rolling Stone
TTITLE6=I Want Your Sex
TTITLE7=The Strangest Thing '97
TTITLE8=Fantasy
TTITLE9=Spinning The Wheel (Forthright Mix)
TTITLE10=Waiting For That Day
TTITLE11=I Knew You Were Waiting
TTITLE12=Faith
TTITLE13=Somebody To Love
EXTD=
EXTT0=
EXTT1=
EXTT2=
EXTT3=
EXTT4=
EXTT5=
EXTT6=
EXTT7=
EXTT8=
EXTT9=
EXTT10=
EXTT11=
EXTT12=
EXTT13=
PLAYORDER=
